<?xml version="1.0" encoding="UTF-8" standalone="no"?>
<!DOCTYPE svg PUBLIC "-//W3C//DTD SVG 1.1//EN"
 "http://www.w3.org/Graphics/SVG/1.1/DTD/svg11.dtd">
<!-- Generated by graphviz version 2.42.3 (20191010.1750)
 -->
<!-- Title: snakemake_dag Pages: 1 -->
<svg width="301pt" height="260pt"
 viewBox="0.00 0.00 301.00 260.00" xmlns="http://www.w3.org/2000/svg" xmlns:xlink="http://www.w3.org/1999/xlink">
<g id="graph0" class="graph" transform="scale(1 1) rotate(0) translate(4 256)">
<title>snakemake_dag</title>
<polygon fill="white" stroke="transparent" points="-4,4 -4,-256 297,-256 297,4 -4,4"/>
<!-- 0 -->
<g id="node1" class="node">
<title>0</title>
<path fill="none" stroke="#d85656" stroke-width="2" d="M131,-36C131,-36 96,-36 96,-36 90,-36 84,-30 84,-24 84,-24 84,-12 84,-12 84,-6 90,0 96,0 96,0 131,0 131,0 137,0 143,-6 143,-12 143,-12 143,-24 143,-24 143,-30 137,-36 131,-36"/>
<text text-anchor="middle" x="113.5" y="-15.5" font-family="sans" font-size="10.00">assembly</text>
</g>
<!-- 1 -->
<g id="node2" class="node">
<title>1</title>
<path fill="none" stroke="#afd856" stroke-width="2" d="M156,-108C156,-108 71,-108 71,-108 65,-108 59,-102 59,-96 59,-96 59,-84 59,-84 59,-78 65,-72 71,-72 71,-72 156,-72 156,-72 162,-72 168,-78 168,-84 168,-84 168,-96 168,-96 168,-102 162,-108 156,-108"/>
<text text-anchor="middle" x="113.5" y="-87.5" font-family="sans" font-size="10.00">QC_assembly_busco</text>
</g>
<!-- 1&#45;&gt;0 -->
<g id="edge1" class="edge">
<title>1&#45;&gt;0</title>
<path fill="none" stroke="grey" stroke-width="2" d="M113.5,-71.7C113.5,-63.98 113.5,-54.71 113.5,-46.11"/>
<polygon fill="grey" stroke="grey" stroke-width="2" points="117,-46.1 113.5,-36.1 110,-46.1 117,-46.1"/>
</g>
<!-- 2 -->
<g id="node3" class="node">
<title>2</title>
<path fill="none" stroke="#56a9d8" stroke-width="2" d="M281,-108C281,-108 198,-108 198,-108 192,-108 186,-102 186,-96 186,-96 186,-84 186,-84 186,-78 192,-72 198,-72 198,-72 281,-72 281,-72 287,-72 293,-78 293,-84 293,-84 293,-96 293,-96 293,-102 287,-108 281,-108"/>
<text text-anchor="middle" x="239.5" y="-87.5" font-family="sans" font-size="10.00">QC_assembly_quast</text>
</g>
<!-- 2&#45;&gt;0 -->
<g id="edge2" class="edge">
<title>2&#45;&gt;0</title>
<path fill="none" stroke="grey" stroke-width="2" d="M208.68,-71.88C191.68,-62.43 170.41,-50.61 152.29,-40.55"/>
<polygon fill="grey" stroke="grey" stroke-width="2" points="153.58,-37.26 143.14,-35.47 150.18,-43.38 153.58,-37.26"/>
</g>
<!-- 3 -->
<g id="node4" class="node">
<title>3</title>
<path fill="none" stroke="#d8ac56" stroke-width="2" d="M49,-180C49,-180 12,-180 12,-180 6,-180 0,-174 0,-168 0,-168 0,-156 0,-156 0,-150 6,-144 12,-144 12,-144 49,-144 49,-144 55,-144 61,-150 61,-156 61,-156 61,-168 61,-168 61,-174 55,-180 49,-180"/>
<text text-anchor="middle" x="30.5" y="-159.5" font-family="sans" font-size="10.00">QC_reads</text>
</g>
<!-- 3&#45;&gt;0 -->
<g id="edge3" class="edge">
<title>3&#45;&gt;0</title>
<path fill="none" stroke="grey" stroke-width="2" d="M30.87,-143.71C32,-124.82 35.99,-94.3 49.5,-72 56.4,-60.61 66.65,-50.54 76.93,-42.32"/>
<polygon fill="grey" stroke="grey" stroke-width="2" points="79.25,-44.96 85.12,-36.14 75.03,-39.37 79.25,-44.96"/>
</g>
<!-- 4 -->
<g id="node5" class="node">
<title>4</title>
<path fill="none" stroke="#56d8a9" stroke-width="2" d="M164,-180C164,-180 91,-180 91,-180 85,-180 79,-174 79,-168 79,-168 79,-156 79,-156 79,-150 85,-144 91,-144 91,-144 164,-144 164,-144 170,-144 176,-150 176,-156 176,-156 176,-168 176,-168 176,-174 170,-180 164,-180"/>
<text text-anchor="middle" x="127.5" y="-159.5" font-family="sans" font-size="10.00">assembly_hifiasm</text>
</g>
<!-- 4&#45;&gt;1 -->
<g id="edge4" class="edge">
<title>4&#45;&gt;1</title>
<path fill="none" stroke="grey" stroke-width="2" d="M124.04,-143.7C122.5,-135.98 120.64,-126.71 118.92,-118.11"/>
<polygon fill="grey" stroke="grey" stroke-width="2" points="122.31,-117.22 116.92,-108.1 115.45,-118.6 122.31,-117.22"/>
</g>
<!-- 4&#45;&gt;2 -->
<g id="edge5" class="edge">
<title>4&#45;&gt;2</title>
<path fill="none" stroke="grey" stroke-width="2" d="M154.9,-143.88C169.41,-134.81 187.42,-123.55 203.09,-113.76"/>
<polygon fill="grey" stroke="grey" stroke-width="2" points="205.37,-116.46 212,-108.19 201.66,-110.52 205.37,-116.46"/>
</g>
<!-- 5 -->
<g id="node6" class="node">
<title>5</title>
<path fill="none" stroke="#59d856" stroke-width="2" d="M105,-252C105,-252 52,-252 52,-252 46,-252 40,-246 40,-240 40,-240 40,-228 40,-228 40,-222 46,-216 52,-216 52,-216 105,-216 105,-216 111,-216 117,-222 117,-228 117,-228 117,-240 117,-240 117,-246 111,-252 105,-252"/>
<text text-anchor="middle" x="78.5" y="-231.5" font-family="sans" font-size="10.00">concat_reads</text>
</g>
<!-- 5&#45;&gt;3 -->
<g id="edge6" class="edge">
<title>5&#45;&gt;3</title>
<path fill="none" stroke="grey" stroke-width="2" d="M66.63,-215.7C61,-207.47 54.15,-197.48 47.93,-188.42"/>
<polygon fill="grey" stroke="grey" stroke-width="2" points="50.77,-186.37 42.23,-180.1 45,-190.33 50.77,-186.37"/>
</g>
<!-- 5&#45;&gt;4 -->
<g id="edge7" class="edge">
<title>5&#45;&gt;4</title>
<path fill="none" stroke="grey" stroke-width="2" d="M90.61,-215.7C96.37,-207.47 103.36,-197.48 109.71,-188.42"/>
<polygon fill="grey" stroke="grey" stroke-width="2" points="112.66,-190.3 115.53,-180.1 106.92,-186.29 112.66,-190.3"/>
</g>
</g>
</svg>
